<mxfile host="app.diagrams.net" modified="2023-09-11T09:48:17.656Z" agent="Mozilla/5.0 (Windows NT 10.0; Win64; x64) AppleWebKit/537.36 (KHTML, like Gecko) Chrome/115.0.0.0 Safari/537.36" etag="W9XXzpwJIKobzR3EzTg_" version="21.7.4" type="github">
  <diagram name="第 1 页" id="n4morXOjP78Tz9eGQ55j">
    <mxGraphModel dx="2603" dy="758" grid="1" gridSize="10" guides="1" tooltips="1" connect="1" arrows="1" fold="1" page="1" pageScale="1" pageWidth="1169" pageHeight="827" math="0" shadow="0">
      <root>
        <mxCell id="0" />
        <mxCell id="1" parent="0" />
        <mxCell id="kqmTzdiRQO2oJOiE_Awe-29" value="" style="rounded=1;whiteSpace=wrap;html=1;dashed=1;dashPattern=12 12;fillColor=none;" vertex="1" parent="1">
          <mxGeometry x="159" y="228.75" width="460" height="142.5" as="geometry" />
        </mxCell>
        <mxCell id="kqmTzdiRQO2oJOiE_Awe-28" value="" style="rounded=1;whiteSpace=wrap;html=1;dashed=1;dashPattern=12 12;fillColor=none;" vertex="1" parent="1">
          <mxGeometry x="159" y="430" width="460" height="220" as="geometry" />
        </mxCell>
        <mxCell id="kqmTzdiRQO2oJOiE_Awe-1" value="bare-metal" style="rounded=1;whiteSpace=wrap;html=1;" vertex="1" parent="1">
          <mxGeometry x="329" y="700" width="120" height="60" as="geometry" />
        </mxCell>
        <mxCell id="kqmTzdiRQO2oJOiE_Awe-2" value="linux&amp;nbsp;" style="rounded=1;whiteSpace=wrap;html=1;" vertex="1" parent="1">
          <mxGeometry x="179" y="560" width="120" height="60" as="geometry" />
        </mxCell>
        <mxCell id="kqmTzdiRQO2oJOiE_Awe-5" value="windows" style="rounded=1;whiteSpace=wrap;html=1;" vertex="1" parent="1">
          <mxGeometry x="479" y="560" width="120" height="60" as="geometry" />
        </mxCell>
        <mxCell id="kqmTzdiRQO2oJOiE_Awe-6" value="macOS" style="rounded=1;whiteSpace=wrap;html=1;" vertex="1" parent="1">
          <mxGeometry x="329" y="560" width="120" height="60" as="geometry" />
        </mxCell>
        <mxCell id="kqmTzdiRQO2oJOiE_Awe-8" value="KVM" style="rounded=0;whiteSpace=wrap;html=1;" vertex="1" parent="1">
          <mxGeometry x="179" y="450" width="120" height="60" as="geometry" />
        </mxCell>
        <mxCell id="kqmTzdiRQO2oJOiE_Awe-9" value="VMware" style="rounded=0;whiteSpace=wrap;html=1;" vertex="1" parent="1">
          <mxGeometry x="479" y="450" width="120" height="60" as="geometry" />
        </mxCell>
        <mxCell id="kqmTzdiRQO2oJOiE_Awe-10" value="Hyper-V" style="rounded=0;whiteSpace=wrap;html=1;" vertex="1" parent="1">
          <mxGeometry x="329" y="450" width="120" height="60" as="geometry" />
        </mxCell>
        <mxCell id="kqmTzdiRQO2oJOiE_Awe-11" value="linux&lt;br&gt;/windows&lt;br&gt;/macOS&amp;nbsp;" style="rounded=1;whiteSpace=wrap;html=1;" vertex="1" parent="1">
          <mxGeometry x="179" y="270" width="120" height="60" as="geometry" />
        </mxCell>
        <mxCell id="kqmTzdiRQO2oJOiE_Awe-14" value="linux&lt;br style=&quot;border-color: var(--border-color);&quot;&gt;/windows&lt;br style=&quot;border-color: var(--border-color);&quot;&gt;/macOS&amp;nbsp;" style="rounded=1;whiteSpace=wrap;html=1;" vertex="1" parent="1">
          <mxGeometry x="329" y="270" width="120" height="60" as="geometry" />
        </mxCell>
        <mxCell id="kqmTzdiRQO2oJOiE_Awe-15" value="linux&lt;br style=&quot;border-color: var(--border-color);&quot;&gt;/windows&lt;br style=&quot;border-color: var(--border-color);&quot;&gt;/macOS&amp;nbsp;" style="rounded=1;whiteSpace=wrap;html=1;" vertex="1" parent="1">
          <mxGeometry x="479" y="270" width="120" height="60" as="geometry" />
        </mxCell>
        <mxCell id="kqmTzdiRQO2oJOiE_Awe-16" value="&lt;b&gt;&lt;font style=&quot;font-size: 18px;&quot;&gt;....&lt;/font&gt;&lt;/b&gt;" style="text;html=1;align=center;verticalAlign=middle;resizable=0;points=[];autosize=1;strokeColor=none;fillColor=none;" vertex="1" parent="1">
          <mxGeometry x="369" y="330" width="40" height="40" as="geometry" />
        </mxCell>
        <mxCell id="kqmTzdiRQO2oJOiE_Awe-17" value="ADBOS" style="rounded=1;whiteSpace=wrap;html=1;" vertex="1" parent="1">
          <mxGeometry x="329" y="110" width="120" height="60" as="geometry" />
        </mxCell>
        <mxCell id="kqmTzdiRQO2oJOiE_Awe-18" value="" style="endArrow=classic;html=1;rounded=0;exitX=0.5;exitY=0;exitDx=0;exitDy=0;entryX=0.5;entryY=1;entryDx=0;entryDy=0;" edge="1" parent="1" source="kqmTzdiRQO2oJOiE_Awe-2" target="kqmTzdiRQO2oJOiE_Awe-8">
          <mxGeometry width="50" height="50" relative="1" as="geometry">
            <mxPoint x="629" y="480" as="sourcePoint" />
            <mxPoint x="679" y="430" as="targetPoint" />
          </mxGeometry>
        </mxCell>
        <mxCell id="kqmTzdiRQO2oJOiE_Awe-20" value="" style="endArrow=classic;html=1;rounded=0;exitX=0.5;exitY=0;exitDx=0;exitDy=0;entryX=0.5;entryY=1;entryDx=0;entryDy=0;" edge="1" parent="1" source="kqmTzdiRQO2oJOiE_Awe-2" target="kqmTzdiRQO2oJOiE_Awe-9">
          <mxGeometry width="50" height="50" relative="1" as="geometry">
            <mxPoint x="629" y="480" as="sourcePoint" />
            <mxPoint x="679" y="430" as="targetPoint" />
          </mxGeometry>
        </mxCell>
        <mxCell id="kqmTzdiRQO2oJOiE_Awe-21" value="" style="endArrow=classic;html=1;rounded=0;exitX=0.5;exitY=0;exitDx=0;exitDy=0;entryX=0.5;entryY=1;entryDx=0;entryDy=0;" edge="1" parent="1" source="kqmTzdiRQO2oJOiE_Awe-6" target="kqmTzdiRQO2oJOiE_Awe-9">
          <mxGeometry width="50" height="50" relative="1" as="geometry">
            <mxPoint x="629" y="480" as="sourcePoint" />
            <mxPoint x="679" y="430" as="targetPoint" />
          </mxGeometry>
        </mxCell>
        <mxCell id="kqmTzdiRQO2oJOiE_Awe-23" value="" style="endArrow=classic;html=1;rounded=0;exitX=0.5;exitY=0;exitDx=0;exitDy=0;entryX=0.5;entryY=1;entryDx=0;entryDy=0;" edge="1" parent="1" source="kqmTzdiRQO2oJOiE_Awe-5" target="kqmTzdiRQO2oJOiE_Awe-10">
          <mxGeometry width="50" height="50" relative="1" as="geometry">
            <mxPoint x="629" y="480" as="sourcePoint" />
            <mxPoint x="679" y="430" as="targetPoint" />
          </mxGeometry>
        </mxCell>
        <mxCell id="kqmTzdiRQO2oJOiE_Awe-25" value="" style="endArrow=classic;html=1;rounded=0;exitX=0.5;exitY=0;exitDx=0;exitDy=0;entryX=0.5;entryY=1;entryDx=0;entryDy=0;" edge="1" parent="1" source="kqmTzdiRQO2oJOiE_Awe-5" target="kqmTzdiRQO2oJOiE_Awe-9">
          <mxGeometry width="50" height="50" relative="1" as="geometry">
            <mxPoint x="629" y="480" as="sourcePoint" />
            <mxPoint x="679" y="430" as="targetPoint" />
          </mxGeometry>
        </mxCell>
        <mxCell id="kqmTzdiRQO2oJOiE_Awe-30" value="" style="endArrow=classic;html=1;rounded=0;exitX=0.5;exitY=0;exitDx=0;exitDy=0;entryX=0.5;entryY=1;entryDx=0;entryDy=0;" edge="1" parent="1" source="kqmTzdiRQO2oJOiE_Awe-1" target="kqmTzdiRQO2oJOiE_Awe-28">
          <mxGeometry width="50" height="50" relative="1" as="geometry">
            <mxPoint x="629" y="480" as="sourcePoint" />
            <mxPoint x="679" y="430" as="targetPoint" />
          </mxGeometry>
        </mxCell>
        <mxCell id="kqmTzdiRQO2oJOiE_Awe-31" value="" style="endArrow=classic;html=1;rounded=0;exitX=0.5;exitY=0;exitDx=0;exitDy=0;entryX=0.5;entryY=1;entryDx=0;entryDy=0;" edge="1" parent="1" source="kqmTzdiRQO2oJOiE_Awe-28" target="kqmTzdiRQO2oJOiE_Awe-29">
          <mxGeometry width="50" height="50" relative="1" as="geometry">
            <mxPoint x="629" y="480" as="sourcePoint" />
            <mxPoint x="679" y="430" as="targetPoint" />
          </mxGeometry>
        </mxCell>
        <mxCell id="kqmTzdiRQO2oJOiE_Awe-32" value="" style="endArrow=classic;html=1;rounded=0;exitX=0.5;exitY=0;exitDx=0;exitDy=0;entryX=0.5;entryY=1;entryDx=0;entryDy=0;" edge="1" parent="1" source="kqmTzdiRQO2oJOiE_Awe-29" target="kqmTzdiRQO2oJOiE_Awe-17">
          <mxGeometry width="50" height="50" relative="1" as="geometry">
            <mxPoint x="629" y="380" as="sourcePoint" />
            <mxPoint x="679" y="330" as="targetPoint" />
          </mxGeometry>
        </mxCell>
        <mxCell id="kqmTzdiRQO2oJOiE_Awe-34" value="" style="rounded=1;whiteSpace=wrap;html=1;dashed=1;dashPattern=12 12;fillColor=none;" vertex="1" parent="1">
          <mxGeometry x="709" y="430" width="460" height="220" as="geometry" />
        </mxCell>
        <mxCell id="kqmTzdiRQO2oJOiE_Awe-35" value="bare-metal" style="rounded=1;whiteSpace=wrap;html=1;" vertex="1" parent="1">
          <mxGeometry x="879" y="700" width="120" height="60" as="geometry" />
        </mxCell>
        <mxCell id="kqmTzdiRQO2oJOiE_Awe-36" value="linux&amp;nbsp;" style="rounded=1;whiteSpace=wrap;html=1;" vertex="1" parent="1">
          <mxGeometry x="729" y="560" width="120" height="60" as="geometry" />
        </mxCell>
        <mxCell id="kqmTzdiRQO2oJOiE_Awe-37" value="windows" style="rounded=1;whiteSpace=wrap;html=1;" vertex="1" parent="1">
          <mxGeometry x="1029" y="560" width="120" height="60" as="geometry" />
        </mxCell>
        <mxCell id="kqmTzdiRQO2oJOiE_Awe-38" value="macOS" style="rounded=1;whiteSpace=wrap;html=1;" vertex="1" parent="1">
          <mxGeometry x="879" y="560" width="120" height="60" as="geometry" />
        </mxCell>
        <mxCell id="kqmTzdiRQO2oJOiE_Awe-39" value="KVM" style="rounded=0;whiteSpace=wrap;html=1;" vertex="1" parent="1">
          <mxGeometry x="729" y="450" width="120" height="60" as="geometry" />
        </mxCell>
        <mxCell id="kqmTzdiRQO2oJOiE_Awe-40" value="VMware" style="rounded=0;whiteSpace=wrap;html=1;" vertex="1" parent="1">
          <mxGeometry x="1029" y="450" width="120" height="60" as="geometry" />
        </mxCell>
        <mxCell id="kqmTzdiRQO2oJOiE_Awe-41" value="Hyper-V" style="rounded=0;whiteSpace=wrap;html=1;" vertex="1" parent="1">
          <mxGeometry x="879" y="450" width="120" height="60" as="geometry" />
        </mxCell>
        <mxCell id="kqmTzdiRQO2oJOiE_Awe-42" value="" style="endArrow=classic;html=1;rounded=0;exitX=0.5;exitY=0;exitDx=0;exitDy=0;entryX=0.5;entryY=1;entryDx=0;entryDy=0;" edge="1" parent="1" source="kqmTzdiRQO2oJOiE_Awe-36" target="kqmTzdiRQO2oJOiE_Awe-39">
          <mxGeometry width="50" height="50" relative="1" as="geometry">
            <mxPoint x="1179" y="480" as="sourcePoint" />
            <mxPoint x="1229" y="430" as="targetPoint" />
          </mxGeometry>
        </mxCell>
        <mxCell id="kqmTzdiRQO2oJOiE_Awe-43" value="" style="endArrow=classic;html=1;rounded=0;exitX=0.5;exitY=0;exitDx=0;exitDy=0;entryX=0.5;entryY=1;entryDx=0;entryDy=0;" edge="1" parent="1" source="kqmTzdiRQO2oJOiE_Awe-36" target="kqmTzdiRQO2oJOiE_Awe-40">
          <mxGeometry width="50" height="50" relative="1" as="geometry">
            <mxPoint x="1179" y="480" as="sourcePoint" />
            <mxPoint x="1229" y="430" as="targetPoint" />
          </mxGeometry>
        </mxCell>
        <mxCell id="kqmTzdiRQO2oJOiE_Awe-44" value="" style="endArrow=classic;html=1;rounded=0;exitX=0.5;exitY=0;exitDx=0;exitDy=0;entryX=0.5;entryY=1;entryDx=0;entryDy=0;" edge="1" parent="1" source="kqmTzdiRQO2oJOiE_Awe-38" target="kqmTzdiRQO2oJOiE_Awe-40">
          <mxGeometry width="50" height="50" relative="1" as="geometry">
            <mxPoint x="1179" y="480" as="sourcePoint" />
            <mxPoint x="1229" y="430" as="targetPoint" />
          </mxGeometry>
        </mxCell>
        <mxCell id="kqmTzdiRQO2oJOiE_Awe-45" value="" style="endArrow=classic;html=1;rounded=0;exitX=0.5;exitY=0;exitDx=0;exitDy=0;entryX=0.5;entryY=1;entryDx=0;entryDy=0;" edge="1" parent="1" source="kqmTzdiRQO2oJOiE_Awe-37" target="kqmTzdiRQO2oJOiE_Awe-41">
          <mxGeometry width="50" height="50" relative="1" as="geometry">
            <mxPoint x="1179" y="480" as="sourcePoint" />
            <mxPoint x="1229" y="430" as="targetPoint" />
          </mxGeometry>
        </mxCell>
        <mxCell id="kqmTzdiRQO2oJOiE_Awe-46" value="" style="endArrow=classic;html=1;rounded=0;exitX=0.5;exitY=0;exitDx=0;exitDy=0;entryX=0.5;entryY=1;entryDx=0;entryDy=0;" edge="1" parent="1" source="kqmTzdiRQO2oJOiE_Awe-37" target="kqmTzdiRQO2oJOiE_Awe-40">
          <mxGeometry width="50" height="50" relative="1" as="geometry">
            <mxPoint x="1179" y="480" as="sourcePoint" />
            <mxPoint x="1229" y="430" as="targetPoint" />
          </mxGeometry>
        </mxCell>
        <mxCell id="kqmTzdiRQO2oJOiE_Awe-47" value="" style="endArrow=classic;html=1;rounded=0;exitX=0.5;exitY=0;exitDx=0;exitDy=0;entryX=0.5;entryY=1;entryDx=0;entryDy=0;" edge="1" parent="1" source="kqmTzdiRQO2oJOiE_Awe-35" target="kqmTzdiRQO2oJOiE_Awe-34">
          <mxGeometry width="50" height="50" relative="1" as="geometry">
            <mxPoint x="1179" y="480" as="sourcePoint" />
            <mxPoint x="1229" y="430" as="targetPoint" />
          </mxGeometry>
        </mxCell>
        <mxCell id="kqmTzdiRQO2oJOiE_Awe-48" value="" style="endArrow=classic;html=1;rounded=0;exitX=0.5;exitY=0;exitDx=0;exitDy=0;entryX=0.5;entryY=1;entryDx=0;entryDy=0;" edge="1" parent="1" target="kqmTzdiRQO2oJOiE_Awe-49">
          <mxGeometry width="50" height="50" relative="1" as="geometry">
            <mxPoint x="938.5" y="429" as="sourcePoint" />
            <mxPoint x="938.5" y="370" as="targetPoint" />
          </mxGeometry>
        </mxCell>
        <mxCell id="kqmTzdiRQO2oJOiE_Awe-49" value="ADBOS" style="rounded=1;whiteSpace=wrap;html=1;" vertex="1" parent="1">
          <mxGeometry x="879" y="110" width="120" height="60" as="geometry" />
        </mxCell>
        <mxCell id="kqmTzdiRQO2oJOiE_Awe-50" value="&lt;b&gt;Layer Two:&lt;br&gt;Hypervisor&lt;/b&gt;" style="text;html=1;align=center;verticalAlign=middle;resizable=0;points=[];autosize=1;strokeColor=none;fillColor=none;" vertex="1" parent="1">
          <mxGeometry y="513" width="90" height="40" as="geometry" />
        </mxCell>
        <mxCell id="kqmTzdiRQO2oJOiE_Awe-51" value="&lt;b&gt;Layer Three:&lt;br&gt;Vms&lt;/b&gt;" style="text;html=1;align=center;verticalAlign=middle;resizable=0;points=[];autosize=1;strokeColor=none;fillColor=none;" vertex="1" parent="1">
          <mxGeometry x="-5" y="275" width="100" height="40" as="geometry" />
        </mxCell>
        <mxCell id="kqmTzdiRQO2oJOiE_Awe-53" value="Deployment Solution A" style="text;html=1;align=center;verticalAlign=middle;resizable=0;points=[];autosize=1;strokeColor=none;fillColor=none;" vertex="1" parent="1">
          <mxGeometry x="319" y="778" width="140" height="30" as="geometry" />
        </mxCell>
        <mxCell id="kqmTzdiRQO2oJOiE_Awe-54" value="Deployment Solution B" style="text;html=1;align=center;verticalAlign=middle;resizable=0;points=[];autosize=1;strokeColor=none;fillColor=none;" vertex="1" parent="1">
          <mxGeometry x="864" y="778" width="150" height="30" as="geometry" />
        </mxCell>
        <mxCell id="kqmTzdiRQO2oJOiE_Awe-56" value="Virtualization&amp;nbsp;" style="text;html=1;align=center;verticalAlign=middle;resizable=0;points=[];autosize=1;strokeColor=none;fillColor=none;" vertex="1" parent="1">
          <mxGeometry x="70" y="465" width="100" height="30" as="geometry" />
        </mxCell>
        <mxCell id="kqmTzdiRQO2oJOiE_Awe-57" value="OS" style="text;html=1;align=center;verticalAlign=middle;resizable=0;points=[];autosize=1;strokeColor=none;fillColor=none;" vertex="1" parent="1">
          <mxGeometry x="119" y="575" width="40" height="30" as="geometry" />
        </mxCell>
        <mxCell id="kqmTzdiRQO2oJOiE_Awe-59" value="Layer One:&lt;br&gt;Bare-Metal" style="text;html=1;align=center;verticalAlign=middle;resizable=0;points=[];autosize=1;strokeColor=none;fillColor=none;fontStyle=1" vertex="1" parent="1">
          <mxGeometry x="-5" y="703" width="90" height="40" as="geometry" />
        </mxCell>
        <mxCell id="kqmTzdiRQO2oJOiE_Awe-60" value="&lt;b&gt;Layer Four:&lt;br&gt;Application&lt;br&gt;&lt;/b&gt;" style="text;html=1;align=center;verticalAlign=middle;resizable=0;points=[];autosize=1;strokeColor=none;fillColor=none;" vertex="1" parent="1">
          <mxGeometry y="120" width="90" height="40" as="geometry" />
        </mxCell>
      </root>
    </mxGraphModel>
  </diagram>
</mxfile>
